<?xml version="1.0" standalone="no"?><!DOCTYPE svg PUBLIC "-//W3C//DTD SVG 1.1//EN" "http://www.w3.org/Graphics/SVG/1.1/DTD/svg11.dtd"><svg t="1620979311655" class="icon" viewBox="0 0 1026 1024" version="1.1" xmlns="http://www.w3.org/2000/svg" p-id="10617" xmlns:xlink="http://www.w3.org/1999/xlink" width="200.390625" height="200"><defs><style type="text/css"></style></defs><path d="M778.24 477.866667H443.733333c-54.613333 0-102.4-44.373333-102.4-102.4 0-51.2 37.546667-92.16 85.333334-102.4 6.826667-95.573333 88.746667-170.666667 184.32-170.666667 61.44 0 119.466667 34.133333 153.6 85.333333h13.653333c78.506667 0 143.36 64.853333 143.36 146.773334S856.746667 477.866667 778.24 477.866667zM610.986667 136.533333c-81.92 0-150.186667 68.266667-150.186667 153.6 0 10.24-10.24 17.066667-17.066667 17.066667-37.546667 0-68.266667 30.72-68.266666 68.266667s30.72 68.266667 68.266666 68.266666h334.506667c61.44 0 109.226667-51.2 109.226667-112.64s-47.786667-112.64-109.226667-112.64c-6.826667 0-13.653333 0-20.48 3.413334-6.826667 0-13.653333-3.413333-17.066667-10.24-27.306667-44.373333-75.093333-75.093333-129.706666-75.093334zM153.6 853.333333h-136.533333c-10.24 0-17.066667-6.826667-17.066667-17.066666v-409.6c0-6.826667 3.413333-10.24 6.826667-13.653334 3.413333-3.413333 10.24-3.413333 13.653333-3.413333 17.066667 3.413333 177.493333 37.546667 211.626667 71.68 6.826667 3.413333 6.826667 10.24 6.826666 13.653333-10.24 109.226667-64.853333 334.506667-68.266666 344.746667-3.413333 6.826667-10.24 13.653333-17.066667 13.653333zM34.133333 819.2h105.813334c10.24-47.786667 54.613333-221.866667 64.853333-317.44-27.306667-17.066667-109.226667-40.96-170.666667-54.613333V819.2z" p-id="10618"></path><path d="M563.2 921.6c-30.72 0-61.44-6.826667-92.16-17.066667l-307.2-85.333333c-10.24-3.413333-13.653333-10.24-10.24-20.48 3.413333-10.24 10.24-13.653333 20.48-10.24l307.2 85.333333c81.92 30.72 139.946667 20.48 314.026667-51.2l187.733333-92.16c-27.306667-30.72-75.093333-37.546667-116.053333-27.306666L706.56 750.933333c-10.24 3.413333-17.066667-3.413333-20.48-10.24-3.413333-10.24 3.413333-17.066667 10.24-20.48l163.84-51.2c58.026667-13.653333 133.12 0 163.84 61.44 3.413333 3.413333 3.413333 10.24 0 13.653334 0 3.413333-3.413333 6.826667-10.24 10.24l-204.8 102.4c-119.466667 44.373333-187.733333 64.853333-245.76 64.853333z" p-id="10619"></path><path d="M614.4 771.413333c-13.653333 0-27.306667 0-37.546667-3.413333L389.12 716.8c-10.24-3.413333-13.653333-10.24-13.653333-20.48 3.413333-10.24 10.24-13.653333 20.48-13.653333l187.733333 51.2c13.653333 3.413333 44.373333 3.413333 58.026667 0l37.546666-13.653334V716.8c0-47.786667-20.48-71.68-71.68-81.92L218.453333 546.133333c-10.24-3.413333-13.653333-10.24-13.653333-20.48 3.413333-10.24 10.24-13.653333 20.48-13.653333l392.533333 85.333333c68.266667 17.066667 98.986667 54.613333 98.986667 116.053334v17.066666c0 6.826667-3.413333 13.653333-10.24 17.066667l-51.2 17.066667c-13.653333 6.826667-27.306667 6.826667-40.96 6.826666z" p-id="10620"></path></svg>