<?xml version="1.0" standalone="no"?><!DOCTYPE svg PUBLIC "-//W3C//DTD SVG 1.1//EN" "http://www.w3.org/Graphics/SVG/1.1/DTD/svg11.dtd"><svg t="1620981435857" class="icon" viewBox="0 0 1024 1024" version="1.1" xmlns="http://www.w3.org/2000/svg" p-id="18566" xmlns:xlink="http://www.w3.org/1999/xlink" width="200" height="200"><defs><style type="text/css"></style></defs><path d="M387.56967175 802.02321458c16.02511803-15.71090003 16.02511803-41.79099409 0.314218-57.81611214L197.15356337 552.84834009 923.93979883 552.84834009c22.30947806 0 40.53412208-18.22464404 40.53412206-40.84834009s-18.22464404-40.84834009-40.53412206-40.84834009l-726.78623546 0 191.04454438-191.35876235c15.71090003-16.02511803 15.39668203-41.79099408-0.31421801-57.81611214-16.02511803-15.71090003-41.47677609-15.71090002-57.50189409 0.314218l-258.91563252 260.80094053c-3.45639799 3.770616-6.28436002 7.85545002-8.48388602 12.88293802-2.19952601 5.02748801-3.14217999 10.36919402-3.14218 15.71090004 0 10.68341203 4.08483399 20.73838803 11.62606602 28.59383805l258.91563252 260.80094051c15.39668204 16.33933604 41.1625581 16.65355405 57.1876761 0.94265401z" p-id="18567"></path></svg>