<?xml version="1.0" encoding="UTF-8"?>
<svg width="177px" height="118px" viewBox="0 0 177 118" version="1.1" xmlns="http://www.w3.org/2000/svg" xmlns:xlink="http://www.w3.org/1999/xlink">
    <title>left_arrow</title>
    <g id="Page-1" stroke="none" stroke-width="1" fill="none" fill-rule="evenodd">
        <g id="left_arrow" transform="translate(88.343127, 58.920191) rotate(180.000000) translate(-88.343127, -58.920191) translate(-0.000000, 0.000000)" fill="#000000" fill-rule="nonzero">
            <path d="M64.0096435,115.584105 C67.1395493,112.51557 67.1395493,107.421802 64.0710142,104.291896 L26.8189973,66.9171375 L168.769434,66.9171375 C173.126754,66.9171375 176.686255,63.3576367 176.686255,58.9389461 C176.686255,54.5202555 173.126754,50.9607547 168.769434,50.9607547 L26.8189973,50.9607547 L64.1323849,13.5859964 C67.2009201,10.4560905 67.1395493,5.42369287 64.0710142,2.293787 C60.9411083,-0.774748163 55.9700814,-0.774748161 52.8401755,2.3551577 L2.27071602,53.2928414 C1.59563829,54.0292898 1.04330195,54.827109 0.613707031,55.8090402 C0.184112107,56.7909715 -1.38777878e-15,57.8342734 -1.38777878e-15,58.8775754 C-1.38777878e-15,60.9641793 0.797819139,62.9280418 2.27071602,64.4623094 L52.8401755,115.399993 C55.84734,118.59127 60.8797376,118.65264 64.0096435,115.584105 Z" id="Path"></path>
        </g>
    </g>
</svg>