<?xml version="1.0" standalone="no"?><!DOCTYPE svg PUBLIC "-//W3C//DTD SVG 1.1//EN" "http://www.w3.org/Graphics/SVG/1.1/DTD/svg11.dtd"><svg t="1621125914303" class="icon" viewBox="0 0 1077 1024" version="1.1" xmlns="http://www.w3.org/2000/svg" p-id="1890" xmlns:xlink="http://www.w3.org/1999/xlink" width="210.3515625" height="200"><defs><style type="text/css"></style></defs><path d="M292.109474 655.791158a59.365053 59.365053 0 0 0-17.057685-52.277895L77.581474 410.138947a9.916632 9.916632 0 0 1-2.748632-10.455579c1.509053-4.311579 5.901474-7.599158 11.156211-8.353684l269.365894-39.289263a60.442947 60.442947 0 0 0 45.756632-33.091368l117.032421-238.295579c2.182737-4.446316 7.302737-7.302737 13.500632-7.302737 5.605053 0.080842 10.563368 2.964211 12.665263 7.275789l117.14021 238.322527c8.757895 17.785263 25.815579 30.181053 45.67579 33.091368l269.473684 39.289263c5.066105 0.727579 9.620211 4.122947 11.048421 8.218948a9.970526 9.970526 0 0 1-2.775579 10.698105l-197.443368 193.293474a59.338105 59.338105 0 0 0-17.030737 52.250947l45.783579 268.126316a10.590316 10.590316 0 0 1-4.904421 10.509473 17.300211 17.300211 0 0 1-16.464842 0.997053l-234.981053-124.119579a62.733474 62.733474 0 0 0-28.591158-7.06021c-9.889684 0-19.806316 2.479158-28.645053 7.114105l-234.603789 123.904a17.273263 17.273263 0 0 1-16.464842-0.646737c-3.880421-2.640842-5.874526-6.736842-5.200842-10.805895l45.810526-268.018526z m765.709473-280.198737c-10.698105-30.315789-37.672421-52.089263-70.494315-56.832l-262.25179-38.238316-113.960421-231.909052C596.614737 19.051789 565.301895 0 531.240421 0c-33.953684 0-65.293474 19.051789-79.845053 48.613053l-113.960421 231.909052-262.278736 38.265263c-32.794947 4.715789-59.823158 26.489263-70.467369 56.832a82.189474 82.189474 0 0 0 20.695579 86.662737l192.296421 188.335158-44.570947 260.985263c-5.551158 32.498526 8.407579 64.512 36.513684 83.56379a92.968421 92.968421 0 0 0 93.184 4.877473l228.459789-120.643368 228.594527 120.697263a91.432421 91.432421 0 0 0 93.07621-4.958316c28.079158-18.997895 42.037895-51.011368 36.45979-83.509894l-44.570948-261.012211 192.323369-188.30821c23.444211-22.959158 31.393684-56.185263 20.668631-86.716632z" p-id="1891"></path></svg>