<?xml version="1.0" standalone="no"?><!DOCTYPE svg PUBLIC "-//W3C//DTD SVG 1.1//EN" "http://www.w3.org/Graphics/SVG/1.1/DTD/svg11.dtd"><svg t="1620979420409" class="icon" viewBox="0 0 1024 1024" version="1.1" xmlns="http://www.w3.org/2000/svg" p-id="11518" xmlns:xlink="http://www.w3.org/1999/xlink" width="200" height="200"><defs><style type="text/css"></style></defs><path d="M1021.79498 34.798099a45.135235 45.135235 0 0 1 0.911338 4.796518c0.127907 1.007269 0.271803 1.998549 0.335757 3.005818a45.311107 45.311107 0 0 1-0.079942 6.731113v2.49419l-126.468192 889.626187a45.518956 45.518956 0 0 1-24.334335 34.103243 46.702097 46.702097 0 0 1-42.369243 0.143895L541.183874 830.684335a45.311107 45.311107 0 0 1-20.177353-61.347465 46.366341 46.366341 0 0 1 62.082932-19.953515L813.945865 865.539033l94.587336-665.245074-440.975879 530.974546v246.477073a46.222445 46.222445 0 0 1-92.428903 0V714.768483a45.167211 45.167211 0 0 1 10.472398-28.923004L795.878981 191.788134 146.222591 531.253703l157.117942 80.229758a45.423026 45.423026 0 0 1 19.873573 61.50735 46.222445 46.222445 0 0 1-41.138136 24.654102 47.757331 47.757331 0 0 1-21.10468-5.020355l-235.668919-120.280684a45.455003 45.455003 0 0 1-0.303779-80.981213L955.523089 5.139629a46.046573 46.046573 0 0 1 10.120653-3.725296c0.671513-0.159884 1.327037-0.223838 1.998549-0.367733A46.366341 46.366341 0 0 1 980.225157 0.087297h0.959304a46.814016 46.814016 0 0 1 13.43025 3.437504c0.319768 0.127907 0.655524 0.111919 0.959304 0.239826s0.815408 0.463663 1.231106 0.655524a46.014596 46.014596 0 0 1 4.172971 2.238375c0.959304 0.575582 1.870642 1.183141 2.765992 1.806689a45.1832 45.1832 0 0 1 3.885179 2.973841c0.767443 0.671513 1.470932 1.422967 2.19041 2.142445a44.991339 44.991339 0 0 1 4.908437 5.819775 45.566921 45.566921 0 0 1 2.670062 3.965121c0.159884 0.271803 0.367733 0.49564 0.511628 0.767443 0.49564 0.927327 0.751454 1.918607 1.183141 2.877911a34.151208 34.151208 0 0 1 2.702039 7.786348z" p-id="11519"></path></svg>